# xmcd
# Track frame offsets:
# 150
# 17556
# 35645
# 49328
# 66894
# 86582
# 101527
# 117858
# 133865
# 147541
# 164496
# 180043
# 195900
# 212360
# 227282
#
# Disc length: 3226 seconds
# Revision: 0
# Processed by: cddbd v1.5.1PL0 Copyright (c) Steve Scherf et al.
# Submitted via: VisiTrax 2.9.10.228 - For more info visit www.synapsa.com
#
DISCID=c30c980f
DTITLE=Bogguss, Suzy - CB90038
DYEAR=1900
DGENRE=Karaoke
TTITLE0=Cross My Broken Heart
TTITLE1=Someday Soon
TTITLE2=Outbound Plane
TTITLE3=Aces
TTITLE4=Leting Go
TTITLE5=Drive South
TTITLE6=Heartache
TTITLE7=Just Like The Weather
TTITLE8=Lovin' A Hurricane
TTITLE9=Hey Cinderella
TTITLE10=Somewhere Between
TTITLE11=No Way Out
TTITLE12=Somebody To Love
TTITLE13=Nobody Love, Nobody Gets Hurt
TTITLE14=From Where I Stand
EXTD=
EXTT0=
EXTT1=
EXTT2=
EXTT3=
EXTT4=
EXTT5=
EXTT6=
EXTT7=
EXTT8=
EXTT9=
EXTT10=
EXTT11=
EXTT12=
EXTT13=
EXTT14=
PLAYORDER=
